<svg id="Capa_1" enable-background="new 0 0 512 512" height="512" viewBox="0 0 512 512" width="512" xmlns="http://www.w3.org/2000/svg"><g><g><g><path d="m256 396.043c-2.901 0-5.66 1.26-7.559 3.453-6.327 7.306-37.89 44.872-37.89 67.054 0 25.06 20.389 45.449 45.449 45.449s45.449-20.389 45.449-45.449c0-22.183-31.563-59.749-37.891-67.054-1.899-2.192-4.657-3.453-7.558-3.453zm0 95.957c-14.033 0-25.449-11.417-25.449-25.449 0-9.002 13.145-29.107 25.441-44.761 12.136 15.503 25.457 35.869 25.457 44.761 0 14.032-11.416 25.449-25.449 25.449z"/><path d="m483.816 39.974c0-22.042-17.931-39.974-39.973-39.974h-375.685c-22.042 0-39.974 17.932-39.974 39.974 0 21.821 17.575 39.613 39.313 39.968l143.321 186.038v117.434c0 3.329 1.656 6.439 4.418 8.297 1.674 1.126 3.622 1.703 5.583 1.703 1.274 0 2.554-.244 3.769-.738l70.364-28.636c3.768-1.533 6.23-5.195 6.23-9.262v-88.798l143.321-186.039c21.739-.354 39.313-18.147 39.313-39.967zm-202.634 308.077-50.364 20.497v-95.973h50.364zm162.661-288.104h-142.637c-5.523 0-10 4.477-10 10s4.478 10 10 10h118.046l-132.99 172.627h-60.524l-132.99-172.627h118.046c5.523 0 10-4.477 10-10s-4.477-10-10-10h-142.636c-11.014 0-19.974-8.96-19.974-19.974 0-11.013 8.96-19.973 19.974-19.973h375.685c11.014 0 19.974 8.96 19.974 19.974-.001 11.013-8.961 19.973-19.974 19.973z"/><path d="m261.729 61.63c-3.621-2.413-8.531-2.176-11.893.591-3.139 2.583-4.423 6.953-3.161 10.818 1.327 4.063 5.219 6.91 9.504 6.911 4.112.001 7.9-2.628 9.35-6.468 1.629-4.312.022-9.284-3.8-11.852z"/></g></g></g></svg>